#tb 0: 1/25
0,          0,          0,        1,   152064, 0xdcc4ac76
0,          1,          1,        1,   152064, 0xfde6871a
0,          2,          2,        1,   152064, 0xe8a351b5
0,          3,          3,        1,   152064, 0x0e586608
0,          4,          4,        1,   152064, 0xbe3c2adc
0,          5,          5,        1,   152064, 0x244a5b3c
0,          6,          6,        1,   152064, 0x7cad919e
0,          7,          7,        1,   152064, 0x24c452c0
0,          8,          8,        1,   152064, 0x089dc7f0
0,          9,          9,        1,   152064, 0x6ee5d1dd
0,         10,         10,        1,   152064, 0x177430f0
0,         11,         11,        1,   152064, 0xf2af65f6
0,         12,         12,        1,   152064, 0x4c4626a7
0,         13,         13,        1,   152064, 0x897af1da
0,         14,         14,        1,   152064, 0xf16199b1
0,         15,         15,        1,   152064, 0x2979a469
0,         16,         16,        1,   152064, 0x5ce345a0
0,         17,         17,        1,   152064, 0x1a044ff3
0,         18,         18,        1,   152064, 0x9075241f
0,         19,         19,        1,   152064, 0xd1457558
0,         20,         20,        1,   152064, 0xdfe3669f
0,         21,         21,        1,   152064, 0x4961fc7a
0,         22,         22,        1,   152064, 0xb84daee5
0,         23,         23,        1,   152064, 0xc4efe5c3
0,         24,         24,        1,   152064, 0x35f73410
0,         25,         25,        1,   152064, 0xf99a2c73
0,         26,         26,        1,   152064, 0xe5c12391
0,         27,         27,        1,   152064, 0xc2056236
0,         28,         28,        1,   152064, 0xce2bff90
0,         29,         29,        1,   152064, 0x01d92bb1
0,         30,         30,        1,   152064, 0xc55eb558
0,         31,         31,        1,   152064, 0xf02ef0ff
0,         32,         32,        1,   152064, 0x069dd1c6
0,         33,         33,        1,   152064, 0x49718229
0,         34,         34,        1,   152064, 0x0e9ea401
0,         35,         35,        1,   152064, 0x307e7f8b
0,         36,         36,        1,   152064, 0xf5071e31
0,         37,         37,        1,   152064, 0xac2c2ad0
0,         38,         38,        1,   152064, 0x5586d665
0,         39,         39,        1,   152064, 0xa62a6a2b
0,         40,         40,        1,   152064, 0xff167d1b
0,         41,         41,        1,   152064, 0x02d225c2
0,         42,         42,        1,   152064, 0x868ccb0b
0,         43,         43,        1,   152064, 0x36edfa29
0,         44,         44,        1,   152064, 0xb6244864
0,         45,         45,        1,   152064, 0xd891b5dc
0,         46,         46,        1,   152064, 0x9246b763
0,         47,         47,        1,   152064, 0xea240b61
0,         48,         48,        1,   152064, 0x2d985877
0,         49,         49,        1,   152064, 0xe6b92603
0,         50,         50,        1,   152064, 0x102ac84f
0,         51,         51,        1,   152064, 0xddaf709b
0,         52,         52,        1,   152064, 0x48dfb25e
0,         53,         53,        1,   152064, 0xf2acadbb
0,         54,         54,        1,   152064, 0x647685f5
0,         55,         55,        1,   152064, 0x893874c9
0,         56,         56,        1,   152064, 0xdfd7ed77
0,         57,         57,        1,   152064, 0x97b36277
0,         58,         58,        1,   152064, 0x59f33282
0,         59,         59,        1,   152064, 0xba5c6a0e
0,         60,         60,        1,   152064, 0x7856ddf0
0,         61,         61,        1,   152064, 0x74e5f095
0,         62,         62,        1,   152064, 0x76167a60
0,         63,         63,        1,   152064, 0xa6cf2255
0,         64,         64,        1,   152064, 0x9f8b1446
0,         65,         65,        1,   152064, 0xa775aa79
0,         66,         66,        1,   152064, 0x5662a698
0,         67,         67,        1,   152064, 0xe6321e5b
0,         68,         68,        1,   152064, 0xdaea9a83
0,         69,         69,        1,   152064, 0xd89d835f
0,         70,         70,        1,   152064, 0x0b1503e2
0,         71,         71,        1,   152064, 0x7fef6395
0,         72,         72,        1,   152064, 0xc27273f2
0,         73,         73,        1,   152064, 0xff9288fd
0,         74,         74,        1,   152064, 0xb76aee35
0,         75,         75,        1,   152064, 0xbd0dc4b2
0,         76,         76,        1,   152064, 0x3085598e
0,         77,         77,        1,   152064, 0x22e408f6
0,         78,         78,        1,   152064, 0xc054866d
0,         79,         79,        1,   152064, 0x881377f8
0,         80,         80,        1,   152064, 0x0dd7311e
0,         81,         81,        1,   152064, 0x627ea688
0,         82,         82,        1,   152064, 0x95bbe693
0,         83,         83,        1,   152064, 0x806c480f
0,         84,         84,        1,   152064, 0x6feb3d47
0,         85,         85,        1,   152064, 0x639f0a72
0,         86,         86,        1,   152064, 0x4922909d
0,         87,         87,        1,   152064, 0x44bbc195
0,         88,         88,        1,   152064, 0xf119ca8f
0,         89,         89,        1,   152064, 0x6f46e9c8
0,         90,         90,        1,   152064, 0xd68e222a
0,         91,         91,        1,   152064, 0xedc716eb
0,         92,         92,        1,   152064, 0x090a7702
0,         93,         93,        1,   152064, 0xc94eac7a
0,         94,         94,        1,   152064, 0x629d8823
0,         95,         95,        1,   152064, 0x30a51f8c
0,         96,         96,        1,   152064, 0x4265666b
0,         97,         97,        1,   152064, 0x766dfd25
0,         98,         98,        1,   152064, 0x7dc37c52
0,         99,         99,        1,   152064, 0x07c65fbe
